solid ascii
  facet normal 0.000000e+000 1.000000e+000 -0.000000e+000
    outer loop
      vertex   -2.700000e+001 1.375000e+002 0.000000e+000
      vertex   -8.300000e+001 1.375000e+002 0.000000e+000
      vertex   -2.700000e+001 1.375000e+002 9.000000e-001
    endloop
  endfacet
  facet normal 0.000000e+000 1.000000e+000 -0.000000e+000
    outer loop
      vertex   -2.700000e+001 1.375000e+002 9.000000e-001
      vertex   -8.300000e+001 1.375000e+002 0.000000e+000
      vertex   -8.300000e+001 1.375000e+002 9.000000e-001
    endloop
  endfacet
  facet normal 1.000000e+000 0.000000e+000 -0.000000e+000
    outer loop
      vertex   -2.700000e+001 9.250000e+001 0.000000e+000
      vertex   -2.700000e+001 1.375000e+002 0.000000e+000
      vertex   -2.700000e+001 9.250000e+001 9.000000e-001
    endloop
  endfacet
  facet normal 1.000000e+000 -0.000000e+000 0.000000e+000
    outer loop
      vertex   -2.700000e+001 9.250000e+001 9.000000e-001
      vertex   -2.700000e+001 1.375000e+002 0.000000e+000
      vertex   -2.700000e+001 1.375000e+002 9.000000e-001
    endloop
  endfacet
  facet normal 0.000000e+000 -1.000000e+000 0.000000e+000
    outer loop
      vertex   -8.300000e+001 9.250000e+001 0.000000e+000
      vertex   -2.700000e+001 9.250000e+001 0.000000e+000
      vertex   -8.300000e+001 9.250000e+001 9.000000e-001
    endloop
  endfacet
  facet normal 0.000000e+000 -1.000000e+000 0.000000e+000
    outer loop
      vertex   -8.300000e+001 9.250000e+001 9.000000e-001
      vertex   -2.700000e+001 9.250000e+001 0.000000e+000
      vertex   -2.700000e+001 9.250000e+001 9.000000e-001
    endloop
  endfacet
  facet normal -1.000000e+000 0.000000e+000 0.000000e+000
    outer loop
      vertex   -8.300000e+001 1.375000e+002 0.000000e+000
      vertex   -8.300000e+001 9.250000e+001 0.000000e+000
      vertex   -8.300000e+001 1.375000e+002 9.000000e-001
    endloop
  endfacet
  facet normal -1.000000e+000 -0.000000e+000 0.000000e+000
    outer loop
      vertex   -8.300000e+001 1.375000e+002 9.000000e-001
      vertex   -8.300000e+001 9.250000e+001 0.000000e+000
      vertex   -8.300000e+001 9.250000e+001 9.000000e-001
    endloop
  endfacet
  facet normal 0.000000e+000 -0.000000e+000 1.000000e+000
    outer loop
      vertex   -8.300000e+001 9.250000e+001 9.000000e-001
      vertex   -2.700000e+001 9.250000e+001 9.000000e-001
      vertex   -8.300000e+001 1.375000e+002 9.000000e-001
    endloop
  endfacet
  facet normal -0.000000e+000 0.000000e+000 1.000000e+000
    outer loop
      vertex   -8.300000e+001 1.375000e+002 9.000000e-001
      vertex   -2.700000e+001 9.250000e+001 9.000000e-001
      vertex   -2.700000e+001 1.375000e+002 9.000000e-001
    endloop
  endfacet
  facet normal 0.000000e+000 -0.000000e+000 -1.000000e+000
    outer loop
      vertex   -8.300000e+001 1.375000e+002 0.000000e+000
      vertex   -2.700000e+001 1.375000e+002 0.000000e+000
      vertex   -8.300000e+001 9.250000e+001 0.000000e+000
    endloop
  endfacet
  facet normal 0.000000e+000 0.000000e+000 -1.000000e+000
    outer loop
      vertex   -8.300000e+001 9.250000e+001 0.000000e+000
      vertex   -2.700000e+001 1.375000e+002 0.000000e+000
      vertex   -2.700000e+001 9.250000e+001 0.000000e+000
    endloop
  endfacet
endsolid
solid ascii
  facet normal 0.000000e+000 1.000000e+000 -0.000000e+000
    outer loop
      vertex   -9.778356e+001 9.735714e+001 0.000000e+000
      vertex   -1.052836e+002 9.735714e+001 0.000000e+000
      vertex   -9.778356e+001 9.735714e+001 2.900000e+001
    endloop
  endfacet
  facet normal 0.000000e+000 1.000000e+000 -0.000000e+000
    outer loop
      vertex   -9.778356e+001 9.735714e+001 2.900000e+001
      vertex   -1.052836e+002 9.735714e+001 0.000000e+000
      vertex   -1.052836e+002 9.735714e+001 2.900000e+001
    endloop
  endfacet
  facet normal 1.000000e+000 0.000000e+000 -0.000000e+000
    outer loop
      vertex   -9.778356e+001 8.985714e+001 0.000000e+000
      vertex   -9.778356e+001 9.735714e+001 0.000000e+000
      vertex   -9.778356e+001 8.985714e+001 2.900000e+001
    endloop
  endfacet
  facet normal 1.000000e+000 -0.000000e+000 0.000000e+000
    outer loop
      vertex   -9.778356e+001 8.985714e+001 2.900000e+001
      vertex   -9.778356e+001 9.735714e+001 0.000000e+000
      vertex   -9.778356e+001 9.735714e+001 2.900000e+001
    endloop
  endfacet
  facet normal 0.000000e+000 -1.000000e+000 0.000000e+000
    outer loop
      vertex   -1.052836e+002 8.985714e+001 0.000000e+000
      vertex   -9.778356e+001 8.985714e+001 0.000000e+000
      vertex   -1.052836e+002 8.985714e+001 2.900000e+001
    endloop
  endfacet
  facet normal 0.000000e+000 -1.000000e+000 0.000000e+000
    outer loop
      vertex   -1.052836e+002 8.985714e+001 2.900000e+001
      vertex   -9.778356e+001 8.985714e+001 0.000000e+000
      vertex   -9.778356e+001 8.985714e+001 2.900000e+001
    endloop
  endfacet
  facet normal -1.000000e+000 0.000000e+000 0.000000e+000
    outer loop
      vertex   -1.052836e+002 9.735714e+001 0.000000e+000
      vertex   -1.052836e+002 8.985714e+001 0.000000e+000
      vertex   -1.052836e+002 9.735714e+001 2.900000e+001
    endloop
  endfacet
  facet normal -1.000000e+000 -0.000000e+000 0.000000e+000
    outer loop
      vertex   -1.052836e+002 9.735714e+001 2.900000e+001
      vertex   -1.052836e+002 8.985714e+001 0.000000e+000
      vertex   -1.052836e+002 8.985714e+001 2.900000e+001
    endloop
  endfacet
  facet normal 0.000000e+000 -0.000000e+000 1.000000e+000
    outer loop
      vertex   -1.052836e+002 8.985714e+001 2.900000e+001
      vertex   -9.778356e+001 8.985714e+001 2.900000e+001
      vertex   -1.052836e+002 9.735714e+001 2.900000e+001
    endloop
  endfacet
  facet normal -0.000000e+000 0.000000e+000 1.000000e+000
    outer loop
      vertex   -1.052836e+002 9.735714e+001 2.900000e+001
      vertex   -9.778356e+001 8.985714e+001 2.900000e+001
      vertex   -9.778356e+001 9.735714e+001 2.900000e+001
    endloop
  endfacet
  facet normal 0.000000e+000 -0.000000e+000 -1.000000e+000
    outer loop
      vertex   -1.052836e+002 9.735714e+001 0.000000e+000
      vertex   -9.778356e+001 9.735714e+001 0.000000e+000
      vertex   -1.052836e+002 8.985714e+001 0.000000e+000
    endloop
  endfacet
  facet normal 0.000000e+000 0.000000e+000 -1.000000e+000
    outer loop
      vertex   -1.052836e+002 8.985714e+001 0.000000e+000
      vertex   -9.778356e+001 9.735714e+001 0.000000e+000
      vertex   -9.778356e+001 8.985714e+001 0.000000e+000
    endloop
  endfacet
endsolid
solid ascii
  facet normal 0.000000e+000 1.000000e+000 -0.000000e+000
    outer loop
      vertex   -1.232077e+002 1.211026e+002 0.000000e+000
      vertex   -1.307077e+002 1.211026e+002 0.000000e+000
      vertex   -1.232077e+002 1.211026e+002 2.900000e+001
    endloop
  endfacet
  facet normal 0.000000e+000 1.000000e+000 -0.000000e+000
    outer loop
      vertex   -1.232077e+002 1.211026e+002 2.900000e+001
      vertex   -1.307077e+002 1.211026e+002 0.000000e+000
      vertex   -1.307077e+002 1.211026e+002 2.900000e+001
    endloop
  endfacet
  facet normal 1.000000e+000 0.000000e+000 -0.000000e+000
    outer loop
      vertex   -1.232077e+002 1.136026e+002 0.000000e+000
      vertex   -1.232077e+002 1.211026e+002 0.000000e+000
      vertex   -1.232077e+002 1.136026e+002 2.900000e+001
    endloop
  endfacet
  facet normal 1.000000e+000 -0.000000e+000 0.000000e+000
    outer loop
      vertex   -1.232077e+002 1.136026e+002 2.900000e+001
      vertex   -1.232077e+002 1.211026e+002 0.000000e+000
      vertex   -1.232077e+002 1.211026e+002 2.900000e+001
    endloop
  endfacet
  facet normal 0.000000e+000 -1.000000e+000 0.000000e+000
    outer loop
      vertex   -1.307077e+002 1.136026e+002 0.000000e+000
      vertex   -1.232077e+002 1.136026e+002 0.000000e+000
      vertex   -1.307077e+002 1.136026e+002 2.900000e+001
    endloop
  endfacet
  facet normal 0.000000e+000 -1.000000e+000 0.000000e+000
    outer loop
      vertex   -1.307077e+002 1.136026e+002 2.900000e+001
      vertex   -1.232077e+002 1.136026e+002 0.000000e+000
      vertex   -1.232077e+002 1.136026e+002 2.900000e+001
    endloop
  endfacet
  facet normal -1.000000e+000 0.000000e+000 0.000000e+000
    outer loop
      vertex   -1.307077e+002 1.211026e+002 0.000000e+000
      vertex   -1.307077e+002 1.136026e+002 0.000000e+000
      vertex   -1.307077e+002 1.211026e+002 2.900000e+001
    endloop
  endfacet
  facet normal -1.000000e+000 -0.000000e+000 0.000000e+000
    outer loop
      vertex   -1.307077e+002 1.211026e+002 2.900000e+001
      vertex   -1.307077e+002 1.136026e+002 0.000000e+000
      vertex   -1.307077e+002 1.136026e+002 2.900000e+001
    endloop
  endfacet
  facet normal 0.000000e+000 -0.000000e+000 1.000000e+000
    outer loop
      vertex   -1.307077e+002 1.136026e+002 2.900000e+001
      vertex   -1.232077e+002 1.136026e+002 2.900000e+001
      vertex   -1.307077e+002 1.211026e+002 2.900000e+001
    endloop
  endfacet
  facet normal -0.000000e+000 0.000000e+000 1.000000e+000
    outer loop
      vertex   -1.307077e+002 1.211026e+002 2.900000e+001
      vertex   -1.232077e+002 1.136026e+002 2.900000e+001
      vertex   -1.232077e+002 1.211026e+002 2.900000e+001
    endloop
  endfacet
  facet normal 0.000000e+000 -0.000000e+000 -1.000000e+000
    outer loop
      vertex   -1.307077e+002 1.211026e+002 0.000000e+000
      vertex   -1.232077e+002 1.211026e+002 0.000000e+000
      vertex   -1.307077e+002 1.136026e+002 0.000000e+000
    endloop
  endfacet
  facet normal 0.000000e+000 0.000000e+000 -1.000000e+000
    outer loop
      vertex   -1.307077e+002 1.136026e+002 0.000000e+000
      vertex   -1.232077e+002 1.211026e+002 0.000000e+000
      vertex   -1.232077e+002 1.136026e+002 0.000000e+000
    endloop
  endfacet
endsolid
