solid ascii
  facet normal -1.000000e+000 -6.010369e-032 -2.537653e-016
    outer loop
      vertex   -7.775000e+001 9.100000e+001 5.600000e+001
      vertex   -7.775000e+001 9.100000e+001 1.287859e-014
      vertex   -7.775000e+001 6.100000e+001 5.600000e+001
    endloop
  endfacet
  facet normal -1.000000e+000 -0.000000e+000 -2.537653e-016
    outer loop
      vertex   -7.775000e+001 6.100000e+001 5.600000e+001
      vertex   -7.775000e+001 9.100000e+001 1.287859e-014
      vertex   -7.775000e+001 6.100000e+001 1.287859e-014
    endloop
  endfacet
  facet normal -1.000000e+000 -0.000000e+000 -2.537653e-016
    outer loop
      vertex   -7.775000e+001 3.100000e+001 5.600000e+001
      vertex   -7.775000e+001 6.100000e+001 1.287859e-014
      vertex   -7.775000e+001 3.100000e+001 1.287859e-014
    endloop
  endfacet
  facet normal -1.000000e+000 6.010369e-032 -2.537653e-016
    outer loop
      vertex   -7.775000e+001 3.100000e+001 5.600000e+001
      vertex   -7.775000e+001 6.100000e+001 5.600000e+001
      vertex   -7.775000e+001 6.100000e+001 1.287859e-014
    endloop
  endfacet
  facet normal 0.000000e+000 1.000000e+000 -0.000000e+000
    outer loop
      vertex   -7.175000e+001 9.100000e+001 1.332268e-014
      vertex   -7.775000e+001 9.100000e+001 1.287859e-014
      vertex   -7.175000e+001 9.100000e+001 5.600000e+001
    endloop
  endfacet
  facet normal 0.000000e+000 1.000000e+000 0.000000e+000
    outer loop
      vertex   -7.175000e+001 9.100000e+001 5.600000e+001
      vertex   -7.775000e+001 9.100000e+001 1.287859e-014
      vertex   -7.775000e+001 9.100000e+001 5.600000e+001
    endloop
  endfacet
  facet normal 1.000000e+000 0.000000e+000 5.075305e-016
    outer loop
      vertex   -7.175000e+001 3.100000e+001 5.600000e+001
      vertex   -7.175000e+001 3.100000e+001 1.332268e-014
      vertex   -7.175000e+001 6.100000e+001 5.600000e+001
    endloop
  endfacet
  facet normal 1.000000e+000 -0.000000e+000 5.075305e-016
    outer loop
      vertex   -7.175000e+001 6.100000e+001 5.600000e+001
      vertex   -7.175000e+001 3.100000e+001 1.332268e-014
      vertex   -7.175000e+001 6.100000e+001 1.332268e-014
    endloop
  endfacet
  facet normal 1.000000e+000 -0.000000e+000 5.075305e-016
    outer loop
      vertex   -7.175000e+001 9.100000e+001 5.600000e+001
      vertex   -7.175000e+001 6.100000e+001 1.332268e-014
      vertex   -7.175000e+001 9.100000e+001 1.332268e-014
    endloop
  endfacet
  facet normal 1.000000e+000 0.000000e+000 5.075305e-016
    outer loop
      vertex   -7.175000e+001 9.100000e+001 5.600000e+001
      vertex   -7.175000e+001 6.100000e+001 5.600000e+001
      vertex   -7.175000e+001 6.100000e+001 1.332268e-014
    endloop
  endfacet
  facet normal 5.921189e-016 -1.000000e+000 3.005184e-031
    outer loop
      vertex   -7.175000e+001 3.100000e+001 5.600000e+001
      vertex   -7.775000e+001 3.100000e+001 5.600000e+001
      vertex   -7.175000e+001 3.100000e+001 1.332268e-014
    endloop
  endfacet
  facet normal 5.921189e-016 -1.000000e+000 1.502592e-031
    outer loop
      vertex   -7.175000e+001 3.100000e+001 1.332268e-014
      vertex   -7.775000e+001 3.100000e+001 5.600000e+001
      vertex   -7.775000e+001 3.100000e+001 1.287859e-014
    endloop
  endfacet
  facet normal -1.184238e-015 -2.368476e-016 1.000000e+000
    outer loop
      vertex   -7.775000e+001 3.100000e+001 5.600000e+001
      vertex   -7.175000e+001 3.100000e+001 5.600000e+001
      vertex   -7.775000e+001 6.100000e+001 5.600000e+001
    endloop
  endfacet
  facet normal -0.000000e+000 0.000000e+000 1.000000e+000
    outer loop
      vertex   -7.775000e+001 6.100000e+001 5.600000e+001
      vertex   -7.175000e+001 3.100000e+001 5.600000e+001
      vertex   -7.175000e+001 6.100000e+001 5.600000e+001
    endloop
  endfacet
  facet normal -1.184238e-015 0.000000e+000 1.000000e+000
    outer loop
      vertex   -7.775000e+001 9.100000e+001 5.600000e+001
      vertex   -7.175000e+001 6.100000e+001 5.600000e+001
      vertex   -7.175000e+001 9.100000e+001 5.600000e+001
    endloop
  endfacet
  facet normal -2.804839e-031 2.368476e-016 1.000000e+000
    outer loop
      vertex   -7.775000e+001 9.100000e+001 5.600000e+001
      vertex   -7.775000e+001 6.100000e+001 5.600000e+001
      vertex   -7.175000e+001 6.100000e+001 5.600000e+001
    endloop
  endfacet
  facet normal 7.401487e-017 0.000000e+000 -1.000000e+000
    outer loop
      vertex   -7.175000e+001 3.100000e+001 1.332268e-014
      vertex   -7.775000e+001 3.100000e+001 1.287859e-014
      vertex   -7.175000e+001 6.100000e+001 1.332268e-014
    endloop
  endfacet
  facet normal 7.401487e-017 0.000000e+000 -1.000000e+000
    outer loop
      vertex   -7.175000e+001 6.100000e+001 1.332268e-014
      vertex   -7.775000e+001 3.100000e+001 1.287859e-014
      vertex   -7.775000e+001 6.100000e+001 1.287859e-014
    endloop
  endfacet
  facet normal 7.401487e-017 0.000000e+000 -1.000000e+000
    outer loop
      vertex   -7.175000e+001 9.100000e+001 1.332268e-014
      vertex   -7.775000e+001 6.100000e+001 1.287859e-014
      vertex   -7.775000e+001 9.100000e+001 1.287859e-014
    endloop
  endfacet
  facet normal 7.401487e-017 0.000000e+000 -1.000000e+000
    outer loop
      vertex   -7.175000e+001 9.100000e+001 1.332268e-014
      vertex   -7.175000e+001 6.100000e+001 1.332268e-014
      vertex   -7.775000e+001 6.100000e+001 1.287859e-014
    endloop
  endfacet
endsolid
solid ascii
  facet normal 0.000000e+000 1.000000e+000 -0.000000e+000
    outer loop
      vertex   -4.425000e+001 9.100000e+001 2.220446e-014
      vertex   -7.175000e+001 9.100000e+001 1.332268e-014
      vertex   -4.425000e+001 9.100000e+001 5.600000e+001
    endloop
  endfacet
  facet normal 0.000000e+000 1.000000e+000 0.000000e+000
    outer loop
      vertex   -4.425000e+001 9.100000e+001 5.600000e+001
      vertex   -7.175000e+001 9.100000e+001 1.332268e-014
      vertex   -7.175000e+001 9.100000e+001 5.600000e+001
    endloop
  endfacet
  facet normal 1.000000e+000 0.000000e+000 -0.000000e+000
    outer loop
      vertex   -4.425000e+001 9.100000e+001 2.220446e-014
      vertex   -4.425000e+001 9.100000e+001 5.600000e+001
      vertex   -4.425000e+001 8.500000e+001 2.220446e-014
    endloop
  endfacet
  facet normal 1.000000e+000 0.000000e+000 -0.000000e+000
    outer loop
      vertex   -4.425000e+001 8.500000e+001 2.220446e-014
      vertex   -4.425000e+001 9.100000e+001 5.600000e+001
      vertex   -4.425000e+001 8.500000e+001 5.600000e+001
    endloop
  endfacet
  facet normal -1.000000e+000 0.000000e+000 -5.075305e-016
    outer loop
      vertex   -7.175000e+001 8.500000e+001 1.332268e-014
      vertex   -7.175000e+001 8.500000e+001 5.600000e+001
      vertex   -7.175000e+001 9.100000e+001 1.332268e-014
    endloop
  endfacet
  facet normal -1.000000e+000 0.000000e+000 -5.075305e-016
    outer loop
      vertex   -7.175000e+001 9.100000e+001 1.332268e-014
      vertex   -7.175000e+001 8.500000e+001 5.600000e+001
      vertex   -7.175000e+001 9.100000e+001 5.600000e+001
    endloop
  endfacet
  facet normal -0.000000e+000 -1.000000e+000 -0.000000e+000
    outer loop
      vertex   -4.425000e+001 8.500000e+001 5.600000e+001
      vertex   -7.175000e+001 8.500000e+001 5.600000e+001
      vertex   -4.425000e+001 8.500000e+001 2.220446e-014
    endloop
  endfacet
  facet normal -0.000000e+000 -1.000000e+000 -0.000000e+000
    outer loop
      vertex   -4.425000e+001 8.500000e+001 2.220446e-014
      vertex   -7.175000e+001 8.500000e+001 5.600000e+001
      vertex   -7.175000e+001 8.500000e+001 1.332268e-014
    endloop
  endfacet
  facet normal 0.000000e+000 -0.000000e+000 1.000000e+000
    outer loop
      vertex   -7.175000e+001 8.500000e+001 5.600000e+001
      vertex   -4.425000e+001 8.500000e+001 5.600000e+001
      vertex   -7.175000e+001 9.100000e+001 5.600000e+001
    endloop
  endfacet
  facet normal -0.000000e+000 0.000000e+000 1.000000e+000
    outer loop
      vertex   -7.175000e+001 9.100000e+001 5.600000e+001
      vertex   -4.425000e+001 8.500000e+001 5.600000e+001
      vertex   -4.425000e+001 9.100000e+001 5.600000e+001
    endloop
  endfacet
  facet normal 3.229740e-016 0.000000e+000 -1.000000e+000
    outer loop
      vertex   -4.425000e+001 8.500000e+001 2.220446e-014
      vertex   -7.175000e+001 8.500000e+001 1.332268e-014
      vertex   -4.425000e+001 9.100000e+001 2.220446e-014
    endloop
  endfacet
  facet normal 3.229740e-016 0.000000e+000 -1.000000e+000
    outer loop
      vertex   -4.425000e+001 9.100000e+001 2.220446e-014
      vertex   -7.175000e+001 8.500000e+001 1.332268e-014
      vertex   -7.175000e+001 9.100000e+001 1.332268e-014
    endloop
  endfacet
endsolid
solid ascii
  facet normal -7.071068e-001 -7.071068e-001 -8.971957e-017
    outer loop
      vertex   -4.615000e+001 8.200000e+001 5.600000e+001
      vertex   -4.615000e+001 8.200000e+001 0.000000e+000
      vertex   -4.515000e+001 8.100000e+001 5.600000e+001
    endloop
  endfacet
  facet normal -7.071068e-001 -7.071068e-001 -2.691587e-016
    outer loop
      vertex   -4.515000e+001 8.100000e+001 5.600000e+001
      vertex   -4.615000e+001 8.200000e+001 0.000000e+000
      vertex   -4.515000e+001 8.100000e+001 4.451994e-015
    endloop
  endfacet
  facet normal -0.000000e+000 0.000000e+000 1.000000e+000
    outer loop
      vertex   -4.615000e+001 8.500000e+001 5.600000e+001
      vertex   -4.615000e+001 8.200000e+001 5.600000e+001
      vertex   -4.425000e+001 8.500000e+001 5.600000e+001
    endloop
  endfacet
  facet normal 0.000000e+000 0.000000e+000 1.000000e+000
    outer loop
      vertex   -4.425000e+001 8.500000e+001 5.600000e+001
      vertex   -4.615000e+001 8.200000e+001 5.600000e+001
      vertex   -4.515000e+001 8.100000e+001 5.600000e+001
    endloop
  endfacet
  facet normal 0.000000e+000 -0.000000e+000 1.000000e+000
    outer loop
      vertex   -4.425000e+001 8.100000e+001 5.600000e+001
      vertex   -4.425000e+001 8.500000e+001 5.600000e+001
      vertex   -4.515000e+001 8.100000e+001 5.600000e+001
    endloop
  endfacet
  facet normal 0.000000e+000 -1.000000e+000 0.000000e+000
    outer loop
      vertex   -4.515000e+001 8.100000e+001 5.600000e+001
      vertex   -4.515000e+001 8.100000e+001 4.451994e-015
      vertex   -4.425000e+001 8.100000e+001 5.600000e+001
    endloop
  endfacet
  facet normal 0.000000e+000 -1.000000e+000 -0.000000e+000
    outer loop
      vertex   -4.425000e+001 8.100000e+001 5.600000e+001
      vertex   -4.515000e+001 8.100000e+001 4.451994e-015
      vertex   -4.425000e+001 8.100000e+001 4.440892e-015
    endloop
  endfacet
  facet normal 1.000000e+000 0.000000e+000 1.268826e-016
    outer loop
      vertex   -4.425000e+001 8.500000e+001 4.440892e-015
      vertex   -4.425000e+001 8.500000e+001 5.600000e+001
      vertex   -4.425000e+001 8.100000e+001 4.440892e-015
    endloop
  endfacet
  facet normal 1.000000e+000 0.000000e+000 1.268826e-016
    outer loop
      vertex   -4.425000e+001 8.100000e+001 4.440892e-015
      vertex   -4.425000e+001 8.500000e+001 5.600000e+001
      vertex   -4.425000e+001 8.100000e+001 5.600000e+001
    endloop
  endfacet
  facet normal -1.000000e+000 0.000000e+000 -1.268826e-016
    outer loop
      vertex   -4.615000e+001 8.200000e+001 0.000000e+000
      vertex   -4.615000e+001 8.200000e+001 5.600000e+001
      vertex   -4.615000e+001 8.500000e+001 0.000000e+000
    endloop
  endfacet
  facet normal -1.000000e+000 0.000000e+000 -1.268826e-016
    outer loop
      vertex   -4.615000e+001 8.500000e+001 0.000000e+000
      vertex   -4.615000e+001 8.200000e+001 5.600000e+001
      vertex   -4.615000e+001 8.500000e+001 5.600000e+001
    endloop
  endfacet
  facet normal -0.000000e+000 1.000000e+000 -0.000000e+000
    outer loop
      vertex   -4.615000e+001 8.500000e+001 0.000000e+000
      vertex   -4.615000e+001 8.500000e+001 5.600000e+001
      vertex   -4.425000e+001 8.500000e+001 4.440892e-015
    endloop
  endfacet
  facet normal 0.000000e+000 1.000000e+000 -0.000000e+000
    outer loop
      vertex   -4.425000e+001 8.500000e+001 4.440892e-015
      vertex   -4.615000e+001 8.500000e+001 5.600000e+001
      vertex   -4.425000e+001 8.500000e+001 5.600000e+001
    endloop
  endfacet
  facet normal -1.233581e-017 0.000000e+000 -1.000000e+000
    outer loop
      vertex   -4.425000e+001 8.100000e+001 4.440892e-015
      vertex   -4.515000e+001 8.100000e+001 4.451994e-015
      vertex   -4.425000e+001 8.500000e+001 4.440892e-015
    endloop
  endfacet
  facet normal 3.632015e-015 -8.199790e-016 -1.000000e+000
    outer loop
      vertex   -4.425000e+001 8.500000e+001 4.440892e-015
      vertex   -4.515000e+001 8.100000e+001 4.451994e-015
      vertex   -4.615000e+001 8.200000e+001 0.000000e+000
    endloop
  endfacet
  facet normal 2.337312e-015 0.000000e+000 -1.000000e+000
    outer loop
      vertex   -4.615000e+001 8.500000e+001 0.000000e+000
      vertex   -4.425000e+001 8.500000e+001 4.440892e-015
      vertex   -4.615000e+001 8.200000e+001 0.000000e+000
    endloop
  endfacet
endsolid
